<?xml version="1.0" encoding="utf-8"?>
<!-- Generator: Adobe Illustrator 24.0.1, SVG Export Plug-In . SVG Version: 6.00 Build 0)  -->
<svg version="1.1" id="Layer_1" xmlns="http://www.w3.org/2000/svg" xmlns:xlink="http://www.w3.org/1999/xlink" x="0px" y="0px"
	 viewBox="0 0 226.3 59.8" style="enable-background:new 0 0 226.3 59.8;" xml:space="preserve">
<style type="text/css">
	.st0{fill:none;}
	.st1{enable-background:new    ;}
	.st2{fill:#575B67;}
</style>
<rect x="-7.8" y="1.9" class="st0" width="234.1" height="83"/>
<g class="st1">
	<path class="st2" d="M25.1,38l13.2,18.1h-1.8l-13-17.8c-1.5,0.1-3,0.3-4.7,0.3H3v17.5H1.5v-51h17.3c12.4,0,19.5,6.1,19.5,16.6
		C38.3,30.4,33.6,36.2,25.1,38z M18.8,37.1c11.5,0,18-5.6,18-15.5c0-9.6-6.6-15.1-18-15.1H3v30.6H18.8z"/>
	<path class="st2" d="M80.2,49.1l1,1c-3.4,3.7-8.5,5.9-14.4,5.9c-10.4,0-18.2-7.9-18.2-18.9c0-11,7.7-18.8,18.2-18.8
		c10.5,0,17.5,7.9,17.5,18.8H50.1c0,10.3,7,17.4,16.7,17.4C72.3,54.6,77.1,52.6,80.2,49.1z M50.2,35.7h32.7
		c-0.7-9.4-6.7-15.9-16.1-15.9C57.7,19.8,50.9,26.3,50.2,35.7z"/>
	<path class="st2" d="M96,33c0,1-0.9,1.9-1.9,1.9c-1,0-1.9-0.9-1.9-1.9s0.9-1.9,1.9-1.9C95.1,31.1,96,32,96,33z M96,54.7
		c0,1-0.9,1.9-1.9,1.9c-1,0-1.9-0.9-1.9-1.9c0-1,0.9-1.9,1.9-1.9C95.1,52.8,96,53.7,96,54.7z"/>
	<path class="st2" d="M108.8,13c0-6.7,4.7-11.9,10.7-11.8c2.3,0.1,4.7,0.9,6.6,2.1v1.8c-1.9-1.5-4.2-2.3-6.6-2.4
		c-5.2-0.1-9.2,4.4-9.2,10.4v5.3h12.3v1.5h-12.3v36.3h-1.5V19.8h-4.7v-1.5h4.7V13z M132.5,7.5c0,1-0.9,1.9-1.9,1.9
		c-1,0-1.9-0.9-1.9-1.9c0-1,0.9-1.9,1.9-1.9C131.6,5.6,132.5,6.4,132.5,7.5z M131.3,18.3v37.7h-1.5V18.3H131.3z"/>
	<path class="st2" d="M179.6,33.2v22.8h-1.5V33.2c0-8.5-5-13.4-13.4-13.4c-9.4,0.2-15.2,6.1-15.9,15.8v20.5h-1.5V18.3h1.5V29
		c2.4-6.6,8-10.5,15.9-10.7C174.1,18.3,179.6,23.9,179.6,33.2z"/>
	<path class="st2" d="M227.1,56.1h-1.5V45c-2.8,6.8-9.1,11.2-17,11.2c-10.7,0-18.5-8-18.5-19c0-11,7.8-19.1,18.5-19.1
		c8,0,14.2,4.5,17,11.2V1.9h1.5V56.1z M225.6,37.2c0-10.1-7.2-17.6-17-17.6c-9.9,0-17,7.4-17,17.6c0,10.1,7.2,17.5,17,17.5
		C218.5,54.8,225.6,47.4,225.6,37.2z"/>
</g>
<text transform="matrix(0.9623 0 0 1 -4.882812e-04 75.2788)" style="font-family:'MyriadPro-Regular'; font-size:16.65px;"> </text>
</svg>
