<?xml version="1.0" encoding="utf-8"?>
<!-- Generator: Adobe Illustrator 24.0.1, SVG Export Plug-In . SVG Version: 6.00 Build 0)  -->
<svg version="1.1" id="Layer_1" xmlns="http://www.w3.org/2000/svg" xmlns:xlink="http://www.w3.org/1999/xlink" x="0px" y="0px"
	 viewBox="0 0 199.2 90.7" style="enable-background:new 0 0 199.2 90.7;" xml:space="preserve">
<style type="text/css">
	.st0{fill:none;}
	.st1{enable-background:new    ;}
</style>
<rect x="-7.8" y="1.9" class="st0" width="234.1" height="83"/>
<g class="st1">
	<path d="M1.7,28.6C3.9,22.2,9,18.5,16.1,18.3v1.5C7.6,20,2.3,25.8,1.7,35.4v20.7H0.2V18.3h1.5V28.6z"/>
	<path d="M52.2,49.1l1,1c-3.4,3.7-8.5,5.9-14.4,5.9c-10.4,0-18.2-7.9-18.2-18.9c0-11,7.7-18.8,18.2-18.8c10.5,0,17.5,7.9,17.5,18.8
		H22.1c0,10.3,7,17.4,16.7,17.4C44.3,54.6,49,52.6,52.2,49.1z M22.2,35.7h32.7c-0.7-9.4-6.7-15.9-16.1-15.9
		C29.6,19.8,22.8,26.3,22.2,35.7z"/>
	<path d="M67.9,33c0,1-0.9,1.9-1.9,1.9c-1,0-1.9-0.9-1.9-1.9s0.9-1.9,1.9-1.9C67.1,31.1,67.9,32,67.9,33z M67.9,54.7
		c0,1-0.9,1.9-1.9,1.9c-1,0-1.9-0.9-1.9-1.9c0-1,0.9-1.9,1.9-1.9C67.1,52.8,67.9,53.7,67.9,54.7z"/>
	<path d="M80.8,13c0-6.7,4.7-11.9,10.7-11.8c2.3,0.1,4.7,0.9,6.6,2.1v1.8c-1.9-1.5-4.2-2.3-6.6-2.4C86.3,2.6,82.3,7,82.3,13v5.3
		h12.3v1.5H82.3v36.3h-1.5V19.8H76v-1.5h4.7V13z M104.4,7.5c0,1-0.9,1.9-1.9,1.9c-1,0-1.9-0.9-1.9-1.9c0-1,0.9-1.9,1.9-1.9
		C103.6,5.6,104.4,6.4,104.4,7.5z M103.3,18.3v37.7h-1.5V18.3H103.3z"/>
	<path d="M151.5,33.2v22.8h-1.5V33.2c0-8.5-5-13.4-13.4-13.4c-9.4,0.2-15.2,6.1-15.9,15.8v20.5h-1.5V18.3h1.5V29
		c2.4-6.6,8-10.5,15.9-10.7C146.1,18.3,151.5,23.9,151.5,33.2z"/>
	<path d="M199.1,56.1h-1.5V45c-2.8,6.8-9.1,11.2-17,11.2c-10.7,0-18.5-8-18.5-19c0-11,7.8-19.1,18.5-19.1c8,0,14.2,4.5,17,11.2V1.9
		h1.5V56.1z M197.6,37.2c0-10.1-7.2-17.6-17-17.6c-9.9,0-17,7.4-17,17.6c0,10.1,7.2,17.5,17,17.5C190.4,54.8,197.6,47.4,197.6,37.2z
		"/>
</g>
<g class="st1">
	<path d="M5.9,64.1v11.2H4.5V64.1H5.9z"/>
	<path d="M8.4,69.4c0-0.8,0-1.5-0.1-2.2h1.2l0.1,1.3h0c0.4-0.8,1.3-1.5,2.6-1.5c1.1,0,2.7,0.7,2.7,3.4v4.8h-1.4v-4.6
		c0-1.3-0.5-2.4-1.8-2.4c-0.9,0-1.7,0.7-1.9,1.5c-0.1,0.2-0.1,0.4-0.1,0.7v4.8H8.4V69.4z"/>
	<path d="M19,64.9v2.3h2v1.1h-2v4.3c0,1,0.3,1.6,1.1,1.6c0.4,0,0.6,0,0.8-0.1l0.1,1.1c-0.3,0.1-0.7,0.2-1.2,0.2
		c-0.7,0-1.2-0.2-1.5-0.6c-0.4-0.4-0.5-1.1-0.5-2.1v-4.4h-1.2v-1.1h1.2v-1.9L19,64.9z"/>
	<path d="M23.3,71.5c0,2,1.2,2.8,2.7,2.8c1,0,1.6-0.2,2.1-0.4l0.2,1c-0.5,0.2-1.3,0.5-2.6,0.5c-2.4,0-3.8-1.6-3.8-4.1
		c0-2.4,1.4-4.3,3.6-4.3c2.5,0,3.2,2.3,3.2,3.8c0,0.3,0,0.5,0,0.7H23.3z M27.4,70.5c0-0.9-0.4-2.4-2-2.4c-1.4,0-2.1,1.4-2.2,2.4
		H27.4z"/>
	<path d="M30.5,69.7c0-0.9,0-1.8-0.1-2.5h1.2l0,1.6h0.1c0.4-1.1,1.2-1.8,2.1-1.8c0.2,0,0.3,0,0.4,0v1.4c-0.1,0-0.3-0.1-0.5-0.1
		c-1,0-1.7,0.8-1.9,1.9c0,0.2-0.1,0.4-0.1,0.7v4.3h-1.4V69.7z"/>
	<path d="M37.4,65c0,0.5-0.3,0.9-0.9,0.9c-0.5,0-0.8-0.4-0.8-0.9c0-0.5,0.4-0.9,0.9-0.9C37,64,37.4,64.4,37.4,65z M35.8,75.3v-8.1
		h1.4v8.1H35.8z"/>
	<path d="M39.5,69.4c0-0.8,0-1.5-0.1-2.2h1.2l0.1,1.3h0c0.4-0.8,1.2-1.5,2.4-1.5c1.1,0,1.9,0.7,2.2,1.6h0c0.2-0.5,0.5-0.8,0.9-1
		c0.5-0.4,1-0.6,1.7-0.6c1,0,2.5,0.7,2.5,3.5v4.7h-1.4v-4.6c0-1.5-0.5-2.5-1.7-2.5c-0.8,0-1.4,0.6-1.7,1.3c-0.1,0.2-0.1,0.5-0.1,0.7
		v5h-1.4v-4.8c0-1.3-0.5-2.2-1.6-2.2c-0.9,0-1.5,0.7-1.7,1.5c-0.1,0.2-0.1,0.5-0.1,0.7v4.9h-1.4V69.4z"/>
	<path d="M60.6,75.3l-0.1-1h0c-0.4,0.6-1.3,1.2-2.4,1.2c-1.6,0-2.4-1.1-2.4-2.3c0-1.9,1.7-3,4.7-3V70c0-0.7-0.2-1.9-1.8-1.9
		c-0.7,0-1.5,0.2-2,0.6l-0.3-1c0.6-0.4,1.6-0.7,2.5-0.7c2.4,0,2.9,1.7,2.9,3.3v3c0,0.7,0,1.4,0.1,1.9H60.6z M60.4,71.2
		c-1.5,0-3.3,0.2-3.3,1.8c0,0.9,0.6,1.4,1.3,1.4c1,0,1.7-0.7,1.9-1.3c0-0.1,0.1-0.3,0.1-0.5V71.2z"/>
	<path d="M64,69.4c0-0.8,0-1.5-0.1-2.2h1.2l0.1,1.3h0c0.4-0.8,1.3-1.5,2.6-1.5c1.1,0,2.7,0.7,2.7,3.4v4.8h-1.4v-4.6
		c0-1.3-0.5-2.4-1.8-2.4c-0.9,0-1.7,0.7-1.9,1.5c-0.1,0.2-0.1,0.4-0.1,0.7v4.8H64V69.4z"/>
	<path d="M79.6,63.5v9.7c0,0.7,0,1.5,0.1,2.1h-1.3l-0.1-1.4h0c-0.4,0.9-1.4,1.6-2.6,1.6c-1.9,0-3.3-1.6-3.3-4.1
		c0-2.7,1.6-4.3,3.5-4.3c1.2,0,2,0.6,2.3,1.2h0v-4.8H79.6z M78.2,70.5c0-0.2,0-0.4-0.1-0.6c-0.2-0.9-1-1.7-2-1.7
		c-1.5,0-2.3,1.3-2.3,3.1c0,1.6,0.8,3,2.3,3c0.9,0,1.8-0.6,2.1-1.7c0-0.2,0.1-0.4,0.1-0.6V70.5z"/>
	<path d="M91,70h-4.2v4h4.7v1.2h-6.1V64.1h5.8v1.2h-4.4v3.5H91V70z"/>
	<path d="M93.9,67.2L95,69c0.3,0.4,0.5,0.9,0.8,1.3h0c0.3-0.5,0.5-0.9,0.8-1.3l1.1-1.7h1.5l-2.6,3.9l2.7,4.2h-1.6l-1.1-1.8
		c-0.3-0.5-0.6-0.9-0.8-1.4h0c-0.3,0.5-0.5,0.9-0.8,1.4l-1.1,1.8h-1.6l2.8-4.1l-2.6-3.9H93.9z"/>
	<path d="M101.2,71.5c0,2,1.2,2.8,2.7,2.8c1,0,1.6-0.2,2.1-0.4l0.2,1c-0.5,0.2-1.3,0.5-2.6,0.5c-2.4,0-3.8-1.6-3.8-4.1
		c0-2.4,1.4-4.3,3.6-4.3c2.5,0,3.2,2.3,3.2,3.8c0,0.3,0,0.5,0,0.7H101.2z M105.3,70.5c0-0.9-0.4-2.4-2-2.4c-1.4,0-2.1,1.4-2.2,2.4
		H105.3z"/>
	<path d="M114,75c-0.4,0.2-1.2,0.5-2.2,0.5c-2.3,0-3.9-1.6-3.9-4.1c0-2.5,1.6-4.3,4.2-4.3c0.8,0,1.6,0.2,2,0.4l-0.3,1.1
		c-0.3-0.2-0.9-0.4-1.6-0.4c-1.8,0-2.7,1.4-2.7,3c0,1.9,1.2,3,2.7,3c0.8,0,1.3-0.2,1.7-0.4L114,75z"/>
	<path d="M122.1,73.1c0,0.8,0,1.6,0.1,2.2h-1.2l-0.1-1.3h0c-0.4,0.6-1.2,1.5-2.6,1.5c-1.2,0-2.7-0.7-2.7-3.5v-4.7h1.4v4.5
		c0,1.5,0.4,2.6,1.7,2.6c0.9,0,1.6-0.7,1.9-1.3c0.1-0.2,0.1-0.5,0.1-0.7v-4.9h1.4V73.1z"/>
	<path d="M126.1,64.9v2.3h2v1.1h-2v4.3c0,1,0.3,1.6,1.1,1.6c0.4,0,0.6,0,0.8-0.1l0.1,1.1c-0.3,0.1-0.7,0.2-1.2,0.2
		c-0.7,0-1.2-0.2-1.5-0.6c-0.4-0.4-0.5-1.1-0.5-2.1v-4.4h-1.2v-1.1h1.2v-1.9L126.1,64.9z"/>
	<path d="M131.3,65c0,0.5-0.3,0.9-0.9,0.9c-0.5,0-0.8-0.4-0.8-0.9c0-0.5,0.4-0.9,0.9-0.9C131,64,131.3,64.4,131.3,65z M129.8,75.3
		v-8.1h1.4v8.1H129.8z"/>
	<path d="M134,67.2l1.5,4.5c0.3,0.7,0.5,1.4,0.6,2.1h0c0.2-0.7,0.4-1.3,0.7-2.1l1.5-4.5h1.5l-3,8.1h-1.3l-2.9-8.1H134z"/>
	<path d="M141.8,71.5c0,2,1.2,2.8,2.7,2.8c1,0,1.6-0.2,2.1-0.4l0.2,1c-0.5,0.2-1.3,0.5-2.6,0.5c-2.4,0-3.8-1.6-3.8-4.1
		c0-2.4,1.4-4.3,3.6-4.3c2.5,0,3.2,2.3,3.2,3.8c0,0.3,0,0.5,0,0.7H141.8z M146,70.5c0-0.9-0.4-2.4-2-2.4c-1.4,0-2.1,1.4-2.2,2.4H146
		z"/>
	<path d="M152.3,73.5c0.6,0.4,1.5,0.7,2.5,0.7c1.4,0,2.3-0.8,2.3-1.9c0-1-0.6-1.6-2-2.2c-1.8-0.6-2.9-1.6-2.9-3.2c0-1.7,1.4-3,3.5-3
		c1.1,0,1.9,0.3,2.4,0.5l-0.4,1.2c-0.4-0.2-1.1-0.5-2.1-0.5c-1.5,0-2,0.9-2,1.7c0,1,0.7,1.6,2.1,2.2c1.8,0.7,2.8,1.6,2.8,3.3
		c0,1.7-1.2,3.2-3.8,3.2c-1,0-2.2-0.3-2.8-0.7L152.3,73.5z"/>
	<path d="M161.2,71.5c0,2,1.2,2.8,2.7,2.8c1,0,1.6-0.2,2.1-0.4l0.2,1c-0.5,0.2-1.3,0.5-2.6,0.5c-2.4,0-3.8-1.6-3.8-4.1
		c0-2.4,1.4-4.3,3.6-4.3c2.5,0,3.2,2.3,3.2,3.8c0,0.3,0,0.5,0,0.7H161.2z M165.4,70.5c0-0.9-0.4-2.4-2-2.4c-1.4,0-2.1,1.4-2.2,2.4
		H165.4z"/>
	<path d="M172.8,75.3l-0.1-1h0c-0.4,0.6-1.3,1.2-2.4,1.2c-1.6,0-2.4-1.1-2.4-2.3c0-1.9,1.7-3,4.7-3V70c0-0.7-0.2-1.9-1.8-1.9
		c-0.7,0-1.5,0.2-2,0.6l-0.3-1c0.6-0.4,1.6-0.7,2.5-0.7c2.4,0,2.9,1.7,2.9,3.3v3c0,0.7,0,1.4,0.1,1.9H172.8z M172.6,71.2
		c-1.5,0-3.3,0.2-3.3,1.8c0,0.9,0.6,1.4,1.3,1.4c1,0,1.7-0.7,1.9-1.3c0-0.1,0.1-0.3,0.1-0.5V71.2z"/>
	<path d="M176.2,69.7c0-0.9,0-1.8-0.1-2.5h1.2l0,1.6h0.1c0.4-1.1,1.2-1.8,2.1-1.8c0.2,0,0.3,0,0.4,0v1.4c-0.1,0-0.3-0.1-0.5-0.1
		c-1,0-1.7,0.8-1.9,1.9c0,0.2-0.1,0.4-0.1,0.7v4.3h-1.4V69.7z"/>
	<path d="M186.8,75c-0.4,0.2-1.2,0.5-2.2,0.5c-2.3,0-3.9-1.6-3.9-4.1c0-2.5,1.6-4.3,4.2-4.3c0.8,0,1.6,0.2,2,0.4l-0.3,1.1
		c-0.3-0.2-0.9-0.4-1.6-0.4c-1.8,0-2.7,1.4-2.7,3c0,1.9,1.2,3,2.7,3c0.8,0,1.3-0.2,1.7-0.4L186.8,75z"/>
	<path d="M188.5,63.5h1.4v5h0c0.2-0.4,0.6-0.8,1-1c0.4-0.2,0.9-0.4,1.4-0.4c1,0,2.7,0.7,2.7,3.4v4.8h-1.4v-4.6
		c0-1.3-0.5-2.4-1.8-2.4c-0.9,0-1.6,0.7-1.9,1.5c-0.1,0.2-0.1,0.4-0.1,0.7v4.9h-1.4V63.5z"/>
</g>
</svg>
